<svg width="120" height="120" viewBox="0 0 120 120" fill="none" xmlns="http://www.w3.org/2000/svg">
<path d="M73.0999 63.2031V102.65C73.0999 105.08 70.9507 106.948 68.5441 106.611L49.451 103.932C47.4759 103.655 46.0068 101.965 46.0068 99.9705V86.5649C46.0068 86.4219 45.95 86.2848 45.8488 86.1837L23.0742 63.4152C19.8578 60.1997 19.8578 54.9854 23.0742 51.7699C26.2894 48.5556 31.5012 48.5556 34.7164 51.7699L45.4731 62.5237C45.6701 62.7206 46.0068 62.5811 46.0068 62.3026V27.4216C46.0068 19.94 52.0718 13.875 59.5533 13.875C67.0349 13.875 73.0999 19.94 73.0999 27.4216V37.5996C73.0999 37.7002 73.2215 37.7506 73.2926 37.6795C76.5991 34.3739 81.959 34.3739 85.2655 37.6795L85.5753 37.9892C89.0543 41.4672 89.0543 47.1072 85.5753 50.5852L73.203 62.9542C73.137 63.0202 73.0999 63.1097 73.0999 63.2031Z" stroke="#C09317" stroke-width="9"/>
<line opacity="0.8" x1="40.125" y1="91.125" x2="54" y2="91.125" stroke="#FCFEFF" stroke-width="12" stroke-linecap="round" stroke-linejoin="round"/>
<line opacity="0.8" x1="43.875" y1="34.875" x2="59.25" y2="34.875" stroke="#FCFEFF" stroke-width="12" stroke-linecap="round" stroke-linejoin="round"/>
<line opacity="0.8" x1="60.75" y1="67.125" x2="77.625" y2="67.125" stroke="#FCFEFF" stroke-width="12" stroke-linecap="round" stroke-linejoin="round"/>
</svg>
