<svg width="190" height="190" viewBox="0 0 190 190" fill="none" xmlns="http://www.w3.org/2000/svg">
<path d="M115.742 100.072V165.212C115.742 167.642 113.592 169.511 111.186 169.173L76.2882 164.277C74.3132 164 72.844 162.31 72.844 160.315V137.061C72.844 136.835 72.7541 136.618 72.594 136.458L36.5342 100.407C31.4416 95.3162 31.4416 87.0602 36.5342 81.969C41.6248 76.8797 49.877 76.8797 54.9676 81.969L71.9991 98.9959C72.3109 99.3077 72.844 99.0868 72.844 98.6458V43.4175C72.844 31.5717 82.447 21.9688 94.2928 21.9688C106.139 21.9688 115.742 31.5717 115.742 43.4175V59.5328C115.742 59.692 115.934 59.7718 116.047 59.6592C121.282 54.4253 129.768 54.4253 135.004 59.6592L135.494 60.1496C141.003 65.6565 141.003 74.5864 135.494 80.0932L115.905 99.6774C115.8 99.7819 115.742 99.9237 115.742 100.072Z" stroke="#C09317" stroke-width="14.25"/>
<g style="mix-blend-mode:multiply">
<line x1="63.5312" y1="144.281" x2="85.5" y2="144.281" stroke="#0C4F64" stroke-width="19" stroke-linecap="round" stroke-linejoin="round"/>
</g>
<g style="mix-blend-mode:multiply">
<line x1="69.4688" y1="55.2188" x2="93.8125" y2="55.2188" stroke="#0C4F64" stroke-width="19" stroke-linecap="round" stroke-linejoin="round"/>
</g>
<g style="mix-blend-mode:multiply">
<line x1="96.1875" y1="106.281" x2="122.906" y2="106.281" stroke="#0C4F64" stroke-width="19" stroke-linecap="round" stroke-linejoin="round"/>
</g>
</svg>
