<svg width="276" height="224" viewBox="0 0 276 224" fill="none" xmlns="http://www.w3.org/2000/svg">
<g filter="url(#filter0_dddddd)">
<path d="M146.789 29.4483C135.271 31.7037 131.176 39.5959 127.504 60.9977C127.38 61.7208 127.937 62.389 128.67 62.389H150.483C151.4 62.389 151.973 61.3923 151.548 60.58C149.936 57.4987 148.967 54.6479 148.382 51.1787C147.512 46.0119 152.544 42.0196 157.652 43.1876L158.724 43.4326C163.203 44.4569 167.472 41.0534 167.472 36.4585C167.472 32.5074 164.269 29.3044 160.318 29.3044H148.376C147.845 29.3044 147.31 29.3462 146.789 29.4483Z" fill="#B33512"/>
<g filter="url(#filter1_d)">
<path d="M108.097 90.8446C106.377 72.9289 120.462 57.4264 138.46 57.4264C156.459 57.4264 170.544 72.9289 168.824 90.8446L160.711 175.338C159.61 186.803 149.978 195.554 138.46 195.554C126.943 195.554 117.311 186.803 116.21 175.338L108.097 90.8446Z" fill="#CC4B23"/>
</g>
<path d="M90.3984 85.2247C87.6761 73.0908 96.7018 61.3438 109.137 61.3438H167.223C179.546 61.3438 188.557 72.8947 185.992 84.9479C179.866 113.736 177.415 136.131 177.723 165.591C177.836 176.408 169.257 185.437 158.439 185.437H117.913C106.964 185.437 98.3431 176.198 98.596 165.251C99.2717 136.008 96.7927 113.726 90.3984 85.2247Z" stroke="#0C4F64" stroke-width="19" style="mix-blend-mode:multiply"/>
</g>
<defs>
<filter id="filter0_dddddd" x="-37" y="-29" width="350" height="350" filterUnits="userSpaceOnUse" color-interpolation-filters="sRGB">
<feFlood flood-opacity="0" result="BackgroundImageFix"/>
<feColorMatrix in="SourceAlpha" type="matrix" values="0 0 0 0 0 0 0 0 0 0 0 0 0 0 0 0 0 0 127 0"/>
<feOffset dy="0.913195"/>
<feGaussianBlur stdDeviation="1.1069"/>
<feColorMatrix type="matrix" values="0 0 0 0 0 0 0 0 0 0 0 0 0 0 0 0 0 0 0.0140573 0"/>
<feBlend mode="normal" in2="BackgroundImageFix" result="effect1_dropShadow"/>
<feColorMatrix in="SourceAlpha" type="matrix" values="0 0 0 0 0 0 0 0 0 0 0 0 0 0 0 0 0 0 127 0"/>
<feOffset dy="2.19453"/>
<feGaussianBlur stdDeviation="2.66004"/>
<feColorMatrix type="matrix" values="0 0 0 0 0 0 0 0 0 0 0 0 0 0 0 0 0 0 0.0201946 0"/>
<feBlend mode="normal" in2="effect1_dropShadow" result="effect2_dropShadow"/>
<feColorMatrix in="SourceAlpha" type="matrix" values="0 0 0 0 0 0 0 0 0 0 0 0 0 0 0 0 0 0 127 0"/>
<feOffset dy="4.13211"/>
<feGaussianBlur stdDeviation="5.00862"/>
<feColorMatrix type="matrix" values="0 0 0 0 0 0 0 0 0 0 0 0 0 0 0 0 0 0 0.025 0"/>
<feBlend mode="normal" in2="effect2_dropShadow" result="effect3_dropShadow"/>
<feColorMatrix in="SourceAlpha" type="matrix" values="0 0 0 0 0 0 0 0 0 0 0 0 0 0 0 0 0 0 127 0"/>
<feOffset dy="7.37098"/>
<feGaussianBlur stdDeviation="8.93452"/>
<feColorMatrix type="matrix" values="0 0 0 0 0 0 0 0 0 0 0 0 0 0 0 0 0 0 0.0298054 0"/>
<feBlend mode="normal" in2="effect3_dropShadow" result="effect4_dropShadow"/>
<feColorMatrix in="SourceAlpha" type="matrix" values="0 0 0 0 0 0 0 0 0 0 0 0 0 0 0 0 0 0 127 0"/>
<feOffset dy="13.7866"/>
<feGaussianBlur stdDeviation="16.711"/>
<feColorMatrix type="matrix" values="0 0 0 0 0 0 0 0 0 0 0 0 0 0 0 0 0 0 0.0359427 0"/>
<feBlend mode="normal" in2="effect4_dropShadow" result="effect5_dropShadow"/>
<feColorMatrix in="SourceAlpha" type="matrix" values="0 0 0 0 0 0 0 0 0 0 0 0 0 0 0 0 0 0 127 0"/>
<feOffset dy="33"/>
<feGaussianBlur stdDeviation="40"/>
<feColorMatrix type="matrix" values="0 0 0 0 0 0 0 0 0 0 0 0 0 0 0 0 0 0 0.05 0"/>
<feBlend mode="normal" in2="effect5_dropShadow" result="effect6_dropShadow"/>
<feBlend mode="normal" in="SourceGraphic" in2="effect6_dropShadow" result="shape"/>
</filter>
<filter id="filter1_d" x="105.58" y="57.4264" width="65.7611" height="142.878" filterUnits="userSpaceOnUse" color-interpolation-filters="sRGB">
<feFlood flood-opacity="0" result="BackgroundImageFix"/>
<feColorMatrix in="SourceAlpha" type="matrix" values="0 0 0 0 0 0 0 0 0 0 0 0 0 0 0 0 0 0 127 0"/>
<feOffset dy="2.375"/>
<feGaussianBlur stdDeviation="1.1875"/>
<feColorMatrix type="matrix" values="0 0 0 0 0 0 0 0 0 0 0 0 0 0 0 0 0 0 0.25 0"/>
<feBlend mode="normal" in2="BackgroundImageFix" result="effect1_dropShadow"/>
<feBlend mode="normal" in="SourceGraphic" in2="effect1_dropShadow" result="shape"/>
</filter>
</defs>
</svg>
