<svg width="120" height="120" viewBox="0 0 120 120" fill="none" xmlns="http://www.w3.org/2000/svg">
<circle cx="34.125" cy="33" r="4.5" fill="#81CFE7"/>
<circle cx="34.125" cy="85.125" r="4.5" fill="#81CFE7"/>
<circle cx="85.875" cy="85.125" r="4.5" fill="#81CFE7"/>
<circle cx="85.875" cy="33" r="4.5" fill="#81CFE7"/>
<path d="M60.1875 18.375V42.375V59.9062M60.1875 101.438V77.4375V59.9062M60.1875 59.9062L42.6562 77.4375M60.1875 59.9062L77.7188 42.375M60.1875 59.9062L42.6562 42.375M60.1875 59.9062L77.7188 77.4375M60.1875 59.9062H42.6562H17.25M60.1875 59.9062H77.7188H102.562" stroke="#1AA9D5" stroke-width="9" stroke-linecap="round" stroke-linejoin="round"/>
<path opacity="0.8" d="M20.625 42.6562L35.6779 59.1176C36.2236 59.7143 36.1981 60.6361 35.6203 61.2017L18.75 77.7188M99.5625 42.6562L84.68 59.1238C84.1422 59.7189 84.1677 60.6317 84.7379 61.1959L101.438 77.7188M42.6562 19.3125L59.1269 35.607C59.7136 36.1874 60.6589 36.1848 61.2425 35.6013L77.7188 19.125M42.6562 101.25L59.1268 84.7794C59.7126 84.1936 60.6624 84.1936 61.2482 84.7794L77.7188 101.25" stroke="#FCFEFF" stroke-width="12" stroke-linecap="round" stroke-linejoin="round"/>
</svg>
