<svg width="72" height="72" viewBox="0 0 72 72" fill="none" xmlns="http://www.w3.org/2000/svg">
<path d="M61.8907 45.7134C60.6596 24.0014 24.5103 37.5497 24.51 17.2862C24.5099 10.683 41.6336 -0.133647 56.8544 9.89958C72.0753 19.9328 69.0535 40.0057 61.8907 45.7134Z" fill="#F5BA18"/>
<path d="M9.92192 25.9039C11.153 47.616 47.3023 34.0676 47.3026 54.3311C47.3027 60.9343 30.179 71.751 14.9582 61.7177C-0.26263 51.6845 2.75916 31.6117 9.92192 25.9039Z" fill="#F5BA18"/>
<path d="M60.4357 35.7527C60.4357 49.2275 49.5123 60.1509 36.0375 60.1509C22.5628 60.1509 11.6394 49.2275 11.6394 35.7527C11.6394 29.8554 13.7271 24.4552 17.2075 20.237C21.6882 14.8063 28.4582 11.3546 36.0375 11.3546C49.5123 11.3546 60.4357 22.278 60.4357 35.7527Z" stroke="#0C4F64" stroke-width="7.16277" style="mix-blend-mode:multiply"/>
</svg>
