<svg width="320" height="320" viewBox="0 0 320 320" fill="none" xmlns="http://www.w3.org/2000/svg">
<path d="M194.933 168.541V281.4C194.933 283.83 192.784 285.698 190.377 285.361L126.129 276.346C124.154 276.069 122.685 274.379 122.685 272.385V230.84C122.685 230.458 122.533 230.093 122.264 229.823L61.5312 169.107C52.9542 160.533 52.9542 146.628 61.5312 138.053C70.105 129.482 84.0033 129.482 92.577 138.053L121.262 166.73C121.787 167.255 122.685 166.883 122.685 166.14V73.1242C122.685 53.1734 138.858 37 158.809 37C178.76 37 194.933 53.1734 194.933 73.1242V100.266C194.933 100.534 195.257 100.668 195.447 100.479C204.264 91.6637 218.557 91.6637 227.375 100.479L228.201 101.305C237.478 110.579 237.478 125.619 228.201 134.894L195.208 167.878C195.032 168.054 194.933 168.293 194.933 168.541Z" stroke="#C09317" stroke-width="24"/>
<g style="mix-blend-mode:multiply">
<line x1="107" y1="243" x2="144" y2="243" stroke="#0C4F64" stroke-width="32" stroke-linecap="round" stroke-linejoin="round"/>
</g>
<g style="mix-blend-mode:multiply">
<line x1="117" y1="93" x2="158" y2="93" stroke="#0C4F64" stroke-width="32" stroke-linecap="round" stroke-linejoin="round"/>
</g>
<g style="mix-blend-mode:multiply">
<line x1="162" y1="179" x2="207" y2="179" stroke="#0C4F64" stroke-width="32" stroke-linecap="round" stroke-linejoin="round"/>
</g>
</svg>
