<svg width="320" height="320" viewBox="0 0 320 320" fill="none" xmlns="http://www.w3.org/2000/svg">
<path d="M174.802 19.2813C155.404 23.08 148.508 36.372 142.323 72.4173C142.114 73.6351 143.051 74.7604 144.287 74.7604H181.024C182.568 74.7604 183.534 73.0817 182.818 71.7137C180.103 66.5241 178.47 61.7227 177.486 55.8799C176.02 47.1779 184.496 40.4541 193.098 42.4212L194.903 42.8339C202.447 44.5589 209.638 38.8267 209.638 31.0881C209.638 24.4336 204.243 19.0391 197.589 19.0391H177.475C176.581 19.0391 175.68 19.1095 174.802 19.2813Z" fill="#B33512"/>
<g filter="url(#filter0_d)">
<path d="M109.638 122.686C106.74 92.5118 130.463 66.4023 160.776 66.4023C191.088 66.4023 214.811 92.5118 211.914 122.686L198.249 264.991C196.395 284.3 180.173 299.039 160.776 299.039C141.378 299.039 125.156 284.3 123.302 264.991L109.638 122.686Z" fill="#CC4B23"/>
</g>
<path d="M79.8289 113.221C75.244 92.7845 90.4451 73 111.389 73H209.218C229.973 73 245.149 92.4543 240.829 112.754C230.512 161.239 226.383 198.957 226.902 248.574C227.092 266.792 212.643 282 194.424 282H126.17C107.729 282 93.2094 266.438 93.6354 248.002C94.7734 198.75 90.5982 161.222 79.8289 113.221Z" stroke="#0C4F64" stroke-width="32" style="mix-blend-mode:multiply"/>
<defs>
<filter id="filter0_d" x="105.397" y="66.4023" width="110.755" height="240.637" filterUnits="userSpaceOnUse" color-interpolation-filters="sRGB">
<feFlood flood-opacity="0" result="BackgroundImageFix"/>
<feColorMatrix in="SourceAlpha" type="matrix" values="0 0 0 0 0 0 0 0 0 0 0 0 0 0 0 0 0 0 127 0"/>
<feOffset dy="4"/>
<feGaussianBlur stdDeviation="2"/>
<feColorMatrix type="matrix" values="0 0 0 0 0 0 0 0 0 0 0 0 0 0 0 0 0 0 0.25 0"/>
<feBlend mode="normal" in2="BackgroundImageFix" result="effect1_dropShadow"/>
<feBlend mode="normal" in="SourceGraphic" in2="effect1_dropShadow" result="shape"/>
</filter>
</defs>
</svg>
