<svg width="320" height="320" viewBox="0 0 320 320" fill="none" xmlns="http://www.w3.org/2000/svg">
<path d="M276.5 204.227C271 107.227 109.501 167.755 109.5 77.227C109.5 47.7271 186 -0.596874 254 44.2271C322 89.051 308.5 178.727 276.5 204.227Z" fill="#F5BA18"/>
<path d="M44.3271 115.727C49.8269 212.727 211.326 152.199 211.327 242.727C211.328 272.227 134.827 320.551 66.8269 275.727C-1.17285 230.903 12.3271 141.227 44.3271 115.727Z" fill="#F5BA18"/>
<path d="M270 159.727C270 219.926 221.199 268.727 161 268.727C100.801 268.727 52 219.926 52 159.727C52 133.38 61.3273 109.255 76.8759 90.4097C96.8935 66.148 127.139 50.7271 161 50.7271C221.199 50.7271 270 99.528 270 159.727Z" stroke="#0C4F64" stroke-width="32" style="mix-blend-mode:multiply"/>
</svg>
